<?xml version="1.0" ?><svg viewBox="0 0 64 64" xmlns="http://www.w3.org/2000/svg"><polygon points="27.78 24.147 20.255 3.473 25.893 1.421 39.056 20.042 27.78 24.147" style="fill:#42a5b2"/><path d="M4.8,28.254,49.977,11.811a4,4,0,0,1,3.448.342l3.827,2.331h0a4,4,0,0,1,5.127,2.39h0A4,4,0,0,1,59.988,22L28.039,33.63l-21.188.263Z" style="fill:#62c4c3"/><polygon points="4.799 28.254 1.379 18.857 5.137 17.489 12.316 25.518 4.799 28.254" style="fill:#42a5b2"/><polygon points="29.148 27.905 36.672 48.579 42.31 46.527 40.424 23.801 29.148 27.905" style="fill:#42a5b2"/><circle cx="5" cy="60" r="2" style="fill:#efbc2e"/><circle cx="28" cy="43" r="2" style="fill:#efbc2e"/><path d="M63.317,16.523a5.071,5.071,0,0,0-5.927-3.129l-3.443-2.1a5.013,5.013,0,0,0-4.308-.424L37.047,15.452,26.706.842A1,1,0,0,0,25.548.48l-5.63,2.051a1,1,0,0,0-.6,1.281l5.808,15.977-12.52,4.555L5.883,16.823A1,1,0,0,0,4.8,16.55L1.037,17.918a1,1,0,0,0-.6,1.281L5.91,34.232a1,1,0,0,0,.94.658h.012l21.191-.26a1.009,1.009,0,0,0,.33-.061l1.877-.685L35.732,48.92a1,1,0,0,0,1.282.6l5.638-2.053a1,1,0,0,0,.655-1.022l-1.4-16.8,18.42-6.708a5,5,0,0,0,2.985-6.416ZM21.541,4.068l3.974-1.447L35.1,16.161l-8.092,2.944ZM5.4,26.969,2.66,19.455l2.184-.794,5.74,6.42ZM37.27,47.3,30.429,28.5l9.106-3.315,1.716,20.66ZM59.648,21.061,41.741,27.582l-.321-3.863a1,1,0,0,0-.457-.76,1.009,1.009,0,0,0-.881-.1l-11.276,4.1a1,1,0,0,0-.6,1.282l1.368,3.758-1.719.627-20.31.249L6.081,28.848l44.238-16.1a3.013,3.013,0,0,1,2.59.252l.958.585-2.936,1.068.683,1.88,4.439-1.615.676.412a1,1,0,0,0,.856.089,3,3,0,1,1,2.063,5.639Z" style="fill:#3a4249"/><rect height="2" style="fill:#3a4249" transform="translate(-3.284 16.662) rotate(-19.988)" width="1.999" x="44.634" y="16.648"/><rect height="2" style="fill:#3a4249" transform="translate(-3.978 15.459) rotate(-19.988)" width="1.999" x="40.875" y="18.016"/><rect height="2" style="fill:#3a4249" transform="translate(-4.672 14.257) rotate(-19.988)" width="1.999" x="37.117" y="19.385"/><rect height="2" style="fill:#3a4249" transform="translate(-5.366 13.054) rotate(-19.988)" width="1.999" x="33.358" y="20.753"/><rect height="2" style="fill:#3a4249" transform="translate(-6.06 11.852) rotate(-19.988)" width="1.999" x="29.599" y="22.121"/><rect height="2" style="fill:#3a4249" transform="translate(-6.754 10.65) rotate(-19.988)" width="1.999" x="25.84" y="23.489"/><rect height="2" style="fill:#3a4249" transform="translate(-7.448 9.447) rotate(-19.988)" width="1.999" x="22.081" y="24.857"/><rect height="2" style="fill:#3a4249" transform="translate(-8.151 8.257) rotate(-20.014)" width="2" x="18.323" y="26.225"/><rect height="2" style="fill:#3a4249" transform="translate(-8.846 7.054) rotate(-20.014)" width="2" x="14.564" y="27.593"/><path d="M19,44h6.184a3,3,0,1,0,0-2H19a6,6,0,0,0,0,12H36V52H19a4,4,0,0,1,0-8Zm9-2a1,1,0,1,1-1,1A1,1,0,0,1,28,42Z" style="fill:#3a4249"/><rect height="2" style="fill:#3a4249" width="2" x="38" y="52"/><path d="M50.5,52H42v2h8.5a2.5,2.5,0,0,1,0,5H19v2H50.5a4.5,4.5,0,0,0,0-9Z" style="fill:#3a4249"/><path d="M5,57a3,3,0,1,0,2.816,4H17V59H7.816A3,3,0,0,0,5,57Zm0,4a1,1,0,1,1,1-1A1,1,0,0,1,5,61Z" style="fill:#3a4249"/></svg>